PathFileType	4	(X/Y/Z)	Run_200 02
DataRate	CameraRate	NumFrames	NumMarkers	Units	OrigDataRate	OrigDataStartFrame	OrigNumFrames
100	100	4	42	mm	100	154	128
Frame#	Time	RASI			LPSI			RPSI			RTH2			RTH3			LTH1			LTH2			LTH3			RTB1			RTB2			LTB1			LTB2			LTB3			RCAL			RMT5			LCAL			LTOE			LMT5			LACR			RACR			CLAV			C7			RUA1			RUA2			RUA3			RLEL			LUA1			LUA2			LUA3			LLEL			RFAsuperior			RFAradius			RFAulna			LFAsuperior			LFAradius			LFAulna			RTOE			RTH1			LMEL			RTB3			RMEL			LASI			
		X1	Y1	Z1	X2	Y2	Z2	X3	Y3	Z3	X4	Y4	Z4	X5	Y5	Z5	X6	Y6	Z6	X7	Y7	Z7	X8	Y8	Z8	X9	Y9	Z9	X10	Y10	Z10	X11	Y11	Z11	X12	Y12	Z12	X13	Y13	Z13	X14	Y14	Z14	X15	Y15	Z15	X16	Y16	Z16	X17	Y17	Z17	X18	Y18	Z18	X19	Y19	Z19	X20	Y20	Z20	X21	Y21	Z21	X22	Y22	Z22	X23	Y23	Z23	X24	Y24	Z24	X25	Y25	Z25	X26	Y26	Z26	X27	Y27	Z27	X28	Y28	Z28	X29	Y29	Z29	X30	Y30	Z30	X31	Y31	Z31	X32	Y32	Z32	X33	Y33	Z33	X34	Y34	Z34	X35	Y35	Z35	X36	Y36	Z36	X37	Y37	Z37	X38	Y38	Z38	X39	Y39	Z39	X40	Y40	Z40	X41	Y41	Z41	X42	Y42	Z42	

146	1.65	1030.830979	1094.144159	-229.420265	893.5083	1148.808256	-428.916537	878.195622	1148.404195	-317.137054	964.583312	825.3784889999999	-203.784998	1054.029334	696.295138	-209.500022	979.613169	947.412706	-529.31945	868.015028	815.000071	-488.206066	889.320372	673.633196	-479.109472	1111.078746	444.575744	-270.996854	1018.303559	418.748058	-208.998782	863.313811	443.073407	-407.414258	742.761518	382.809048	-460.055236	739.303861	264.167521	-395.526655	893.010998	160.163134	-294.793813	1077.825454	93.64009	-216.734541	566.668059	212.865528	-377.834134	750.689614	68.039771	-345.978047	694.8186480000001	53.846988	-442.582769	1044.926246	1579.755219	-511.726217	1022.221727	1562.491531	-192.022815	1089.766449	1527.840272	-315.076073	974.376356	1596.808793	-361.271093	881.520225	1510.37332	-156.620139	895.143638	1447.624284	-109.427202	798.268965	1407.801446	-86.749623	740.147706	1369.089562	-67.600069	953.947148	1486.574303	-582.556973	984.964102	1410.238684	-605.756929	916.90172	1346.92199	-643.1563149999999	902.980053	1280.936186	-663.755693	798.928881	1278.509964	-48.643998	929.136876	1166.03361	-109.859531	884.196363	1140.608508	-63.457944	974.038788	1244.740864	-639.520172	1113.015938	1285.681306	-520.518405	1125.944731	1218.010192	-543.8152229999999	1133.098032	120.465271	-306.55026	967.310329	981.791062	-174.371091	871.119591	1261.304395	-579.064646	1039.482049	270.17397	-287.424181	746.516525	1336.113531	-151.600858	1052.543912	1076.921613	-474.693901	
147	1.66	1032.190692	1098.967186	-229.075125	895.319825	1152.701846	-429.001181	879.651478	1152.35709	-317.618047	963.2095870000001	829.2868109999999	-204.237237	1049.117893	698.788532	-210.138852	980.92656	951.565002	-529.4043349999999	867.0356420000001	821.040672	-488.797825	885.838126	679.328388	-479.498909	1114.973743	447.201747	-272.84697	1025.23206	414.700542	-209.191577	855.615712	448.910354	-408.527598	734.347924	390.495542	-461.399774	730.129485	271.261448	-397.348397	917.055615	148.043874	-294.896281	1107.539018	93.68404099999999	-221.130414	558.627868	225.069788	-380.369682	733.703833	69.808685	-346.786582	678.3273359999999	58.400375	-443.95428	1045.497535	1585.181642	-510.417741	1022.382556	1567.222274	-191.619053	1089.539066	1532.355501	-314.337055	974.507477	1601.40264	-360.412851	881.077953	1516.916034	-156.975913	894.0355	1453.71308	-109.986801	796.7870359999999	1414.494569	-88.48951099999999	738.301577	1375.688046	-69.977671	954.546953	1492.821282	-582.123694	985.387985	1416.726389	-605.7054419999999	917.282333	1353.808717	-643.842886	903.590597	1287.480356	-664.397095	797.414237	1285.441423	-50.598263	929.4318019999999	1174.361644	-110.084222	883.837819	1147.987917	-64.91711100000001	974.489006	1251.852433	-639.219842	1112.024135	1294.315667	-519.266869	1125.74397	1226.325452	-541.870406	1159.03512	125.786585	-311.638299	966.036666	986.134144	-174.274672	871.165026	1267.910124	-579.97085	1055.425158	268.299988	-289.353439	745.702884	1342.646062	-154.257094	1054.50355	1080.888455	-474.144313	
148	1.67	1033.519027	1102.649403	-228.950408	897.011106	1155.836794	-429.012406	880.859116	1155.814945	-317.232859	961.8942950000001	832.204846	-204.553054	1044.203997	700.104663	-210.688945	982.566718	955.052591	-529.647406	866.811754	826.238864	-489.428382	883.722121	684.14458	-479.662158	1118.09352	449.285551	-274.705461	1031.770749	410.913295	-209.446445	849.325411	453.960308	-408.979541	727.417375	397.549653	-462.493193	721.823728	277.895138	-398.748331	940.121922	137.58359	-294.308049	1135.483578	94.79105300000001	-225.872551	551.391161	237.229298	-383.141056	717.234649	72.268942	-347.580003	662.695247	63.61174	-445.288552	1045.878815	1589.729419	-509.106743	1022.527626	1570.973656	-191.121286	1089.328311	1535.979906	-313.546058	974.4902039999999	1605.07178	-359.423571	880.746025	1522.134385	-157.436933	893.204418	1458.622889	-110.316157	795.664839	1419.784562	-89.85911299999999	736.961504	1380.682347	-71.923034	955.090942	1498.207933	-581.647984	985.6866240000001	1422.211046	-605.461785	917.373799	1359.780459	-644.171209	903.923595	1293.080175	-664.851174	796.5610380000001	1290.849766	-52.239288	930.462021	1181.423274	-110.249583	884.371176	1154.054218	-66.260201	974.6014709999999	1257.724233	-638.819857	1110.978632	1301.309446	-518.039265	1125.006162	1232.938669	-539.698458	1182.487496	131.798492	-317.00779	966.4019950000001	989.256814	-174.079798	870.845188	1273.549262	-580.6618089999999	1070.273496	266.954927	-291.012663	745.319739	1347.61115	-156.431792	1056.308401	1084.483606	-474.028427	
149	1.68	1034.777047	1105.184145	-229.063915	898.461405	1158.245726	-428.890194	881.871354	1158.581369	-316.209047	960.631739	834.059042	-204.920891	1039.634182	700.321101	-211.159266	984.519163	957.721588	-529.905847	867.344932	830.304723	-489.97377	883.020752	687.773777	-479.576779	1120.548015	450.809695	-276.355125	1037.603674	407.538007	-209.892116	844.594715	457.893797	-408.861453	722.17098	403.705237	-463.453991	714.359922	283.891288	-399.859904	961.534416	128.872874	-293.404233	1160.838726	96.83828099999999	-230.758699	544.830017	249.199766	-386.177173	701.446826	75.567291	-348.375225	648.040646	69.411539	-446.604966	1046.044979	1593.345624	-507.817028	1022.616324	1573.701664	-190.466028	1089.176319	1538.69007	-312.701459	974.346469	1607.754116	-358.309795	880.56541	1525.78762	-157.920331	892.619411	1462.173805	-110.38514	794.847397	1423.597648	-90.795529	736.053257	1383.975798	-73.434743	955.536335	1502.596266	-581.1116500000001	985.813208	1426.653215	-605.058228	917.170568	1364.775964	-644.220847	903.939808	1297.687239	-665.069848	796.331786	1294.682561	-53.503316	932.193173	1187.192873	-110.303092	885.778429	1158.761439	-67.44504499999999	974.376705	1262.362069	-638.295985	1109.910717	1306.562608	-516.815931	1123.752212	1237.788653	-537.363256	1203.009886	138.137991	-322.392862	967.774259	991.050496	-174.041652	870.215704	1278.201167	-581.102993	1083.688958	266.002201	-292.299689	745.256563	1350.912871	-157.963128	1057.893446	1087.438573	-473.976443	
